PathFileType	4	(X/Y/Z)	Patient4_TMGait_0pt6_02_left_07.trc.trc
DataRate	CameraRate	NumFrames	NumMarkers	Units	OrigDataRate	OrigDataStartFrame	OrigNumFrames
77.777777777778	77.777777777778	4	33	mm	77.777777777778	89	       141
Frame#	Time	Sacral			L.Shoulder			Chest			R.Shoulder			Neck			R.ASIS			L.ASIS			R.Thigh.Superior			R.Thigh.Lateral			R.Thigh.Inferior			R.Patella			L.Thigh.Superior			L.Thigh.Lateral			L.Thigh.Inferior			L.Patella			L.Shank.Superior			L.Shank.Lateral			L.Shank.Inferior			R.Shank.Superior			R.Shank.Lateral			R.Shank.Inferior			R.Heel			R.Midfoot.Superior			R.Midfoot.Lateral			R.Toe			L.Heel			L.Midfoot.Lateral			L.Midfoot.Superior			L.Toe			L.Elbow			L.Wrist			R.Elbow			R.Wrist			
		X1	Y1	Z1	X2	Y2	Z2	X3	Y3	Z3	X4	Y4	Z4	X5	Y5	Z5	X6	Y6	Z6	X7	Y7	Z7	X8	Y8	Z8	X9	Y9	Z9	X10	Y10	Z10	X11	Y11	Z11	X12	Y12	Z12	X13	Y13	Z13	X14	Y14	Z14	X15	Y15	Z15	X16	Y16	Z16	X17	Y17	Z17	X18	Y18	Z18	X19	Y19	Z19	X20	Y20	Z20	X21	Y21	Z21	X22	Y22	Z22	X23	Y23	Z23	X24	Y24	Z24	X25	Y25	Z25	X26	Y26	Z26	X27	Y27	Z27	X28	Y28	Z28	X29	Y29	Z29	X30	Y30	Z30	X31	Y31	Z31	X32	Y32	Z32	X33	Y33	Z33	

89	9.571428571429	755.743677078308	1006.382013473749	461.926684819640	920.886882602788	1426.806398214698	260.220272008215	1033.450932263746	1362.347603291259	416.527293835188	959.164937297437	1442.448376678891	590.869139334369	914.160219498816	1491.730583307783	411.956721932821	989.261386609785	938.237599109558	564.429770536125	958.540596933937	962.198710463951	291.688595921905	1043.758070139451	746.929659194163	531.280100581968	974.007993584099	632.512693761427	593.544594549417	1051.210025395267	588.254955450061	508.365835688795	1059.301372682245	502.359805515155	513.593764040887	992.367151161146	740.279736976211	309.843146669313	895.822397063413	628.663345182757	253.904301451419	984.507669197102	541.058245405558	303.625171590494	973.493511983380	455.400981235957	301.694129556928	903.411114173990	400.363289086604	304.551944037090	757.909450803938	358.602843345506	271.663643330582	749.077514624894	231.557885823973	332.135646172312	1043.730972114758	412.129531515566	522.879224416895	986.908115075620	300.179524891346	584.525379513841	1040.046175016104	211.641092577870	520.868902916203	924.950499214252	41.001059857303	488.869235710253	1094.487118346679	98.021281960013	522.273686123527	1008.528279151933	36.318705638629	563.369831721232	1215.885192726870	48.674788189248	550.720839475054	564.202020515768	168.438384289540	392.207761519863	612.385495107940	118.068345481256	309.774972480783	717.776655156085	127.696480120718	319.372281045303	792.547085170515	30.831337488871	292.102593737762	903.096029479805	1073.084497305585	145.989931410270	1110.131296854212	914.683600114451	158.089094771405	894.668053550931	1112.214464695631	733.535942290924	1032.039649495388	891.639023564544	722.549110887628	
90	9.584285714286	756.185070443690	1006.825972743025	464.319004029475	920.061006150578	1427.630749661147	262.415928232953	1034.119861083809	1362.759665184221	417.528879999690	961.502426629216	1442.342094781229	592.795132897772	915.157133705904	1492.154935614281	414.530792614290	990.235829622957	938.936933730193	565.360345435935	956.513242834946	960.685230148112	293.176361925782	1042.622003960117	745.831420580578	533.507609308195	971.428293588859	632.607198506944	595.194807032274	1047.970732437754	587.534489402888	509.839865510821	1055.128874953650	501.701312920415	514.721881716339	998.776925896946	743.409859148354	311.211604341889	908.028244802224	628.902143061098	253.732960142300	999.696778973198	543.826358333372	303.947611360457	990.424396925168	456.826235924012	301.363297951815	918.418022001900	401.690625138781	304.169370496983	771.489863777975	365.200866951575	270.672737457349	757.630534416922	238.770726632992	331.328397705462	1038.820750075334	411.623688407066	523.834870469167	981.237853398954	299.960483432696	585.216876838187	1033.480248180206	211.189040426396	521.246369942006	917.258658643535	40.953139419085	488.981944952735	1086.878318289963	97.847354185111	522.485934499852	1000.797452466567	36.245538764987	563.510653604545	1208.220238050543	48.389686228907	550.882119892917	570.247819169126	186.223637772961	390.638470018256	615.623079363554	132.170446872050	308.612062973411	721.732911518597	134.910862759370	318.521316306626	789.447850874426	30.605194366968	291.957842694738	898.555540670583	1073.681051278467	148.692527795728	1097.710247695896	904.587568437996	159.101594431505	903.617131054389	1111.528207944385	736.937412995755	1052.119315758695	898.865168399829	721.652998387043	
91	9.597142857143	756.429772873063	1007.160622583578	466.532171114556	919.026474907459	1428.280643304996	264.401735988458	1034.609917466567	1363.018999240546	418.284033188299	963.709364966330	1442.065885473121	594.512811315181	916.023168415237	1492.441541491321	416.849415079446	990.955812821841	939.509937086098	566.174523986891	954.988677408632	959.556964080124	294.464357163798	1041.375515565222	744.779243569373	535.582838578629	968.852916688195	632.667183948188	596.773841472808	1044.707434630029	586.814805684249	511.239515298311	1050.952895679391	501.035669712003	515.835540075274	1004.975190604251	746.874098182905	312.790852964871	920.150659428282	629.734227452619	253.678638508452	1014.523944671985	547.355385461485	304.658948694447	1007.246871409754	459.144758108624	301.481809715287	933.692260710612	403.685223133306	304.048992160392	785.682816047759	371.803469203453	269.778822069874	767.363196332811	246.027819815829	330.630194715775	1033.916085465791	411.086210041306	524.745680106020	975.601634932591	299.714303647027	585.898776268089	1026.938952624216	210.719294336874	521.593613029669	909.538862669897	40.935635962859	489.100442343739	1079.289702458192	97.648760019834	522.676216742939	993.041008218348	36.162538817889	563.649303702811	1200.552789373140	47.993354740605	551.014227592154	577.962915036731	202.816432355917	388.895205358332	620.966418194273	145.670373516606	307.305613184206	727.481522946550	142.346146722777	317.786711853130	788.848665027015	30.989068096477	291.895225181243	893.831117805935	1074.025057000148	151.415896515491	1084.309331531204	894.575825189727	159.978017008945	912.777601756758	1110.833761526936	740.232241047017	1072.022791703479	906.781566304322	720.502083050981	
92	9.610000000000	756.499213214839	1007.454909579894	468.562127278086	917.880880333563	1428.819754484171	266.164781394885	1034.951324750504	1363.171492037530	418.819236541820	965.780749293509	1441.708458597578	596.007259083446	916.766266848739	1492.655282715181	418.884562993163	991.430441524069	940.003432579814	566.913448309778	953.885373821155	958.823049497329	295.589044043245	1040.084857412042	743.856829727050	537.430358706480	966.338045829502	632.724218952873	598.210224955066	1041.507143045084	586.135667179670	512.513743957575	1046.851859607127	500.383180763836	516.863606784084	1010.832593171357	750.711514900007	314.631940079385	931.970892851684	631.237082093293	253.793838235362	1028.763036111187	551.679169069478	305.745238477186	1023.719859075270	462.399764641298	301.995899331691	949.026597950639	406.372819898159	304.171357150780	800.261847447847	378.219229606621	269.017885788830	778.255074646479	253.031463447419	330.024013325461	1029.084612379636	410.539175209994	525.557881989698	970.043117518865	299.479509845389	586.530628253957	1020.449584757186	210.253552651891	521.882388694910	901.800519072670	40.948777183237	489.226318202660	1071.716014415785	97.453709294676	522.843233643764	985.272383592072	36.086463715039	563.788273458383	1192.882084989566	47.543058322895	551.123098115104	587.274627619437	217.396156289510	386.994577503244	628.535764925123	157.829061767322	305.872756629658	735.212447413691	149.609610078157	317.140991010248	791.357532791750	32.040531535908	291.916780011004	888.960099083231	1074.198764960778	154.197296200431	1069.913334666556	884.747434507119	160.737711150543	922.141923119996	1110.203562556959	743.340395443300	1091.641608828487	915.431779182790	719.075188092023	
